<?xml version="1.0" encoding="UTF-8" standalone="no"?>
<!DOCTYPE svg PUBLIC "-//W3C//DTD SVG 20010904//EN"
              "http://www.w3.org/TR/2001/REC-SVG-20010904/DTD/svg10.dtd">

<svg xmlns="http://www.w3.org/2000/svg"
     width="6.4in" height="6.4in"
     viewBox="0 0 1920 1920">
     <rect fill="white" width="100%" height="100%"/>
  <path id="Auswahl"
        fill="black" stroke="black" stroke-width="1"
        d="M 244.00,736.00
           C 239.13,737.71 240.01,740.36 240.00,745.00
             239.99,752.28 240.03,757.78 235.36,763.96
             228.02,773.67 222.08,765.59 220.00,778.00
             211.46,775.95 205.87,779.10 198.00,781.95
             198.00,781.95 178.00,788.00 178.00,788.00
             178.00,788.00 158.00,793.34 158.00,793.34
             158.00,793.34 146.10,795.72 146.10,795.72
             142.33,797.41 142.00,800.61 137.96,802.69
             135.48,803.96 131.85,804.02 129.00,804.76
             129.00,804.76 115.00,810.01 115.00,810.01
             115.00,810.01 69.00,832.25 69.00,832.25
             55.00,839.26 28.44,848.58 30.63,868.00
             31.33,874.22 33.58,882.73 37.09,887.91
             37.09,887.91 41.15,893.17 41.15,893.17
             43.57,896.98 42.59,899.07 45.57,902.83
             53.60,912.96 75.68,925.68 89.00,925.99
             94.35,926.11 99.52,925.98 103.37,921.66
             105.66,919.09 106.14,916.10 109.21,913.84
             109.21,913.84 119.00,908.78 119.00,908.78
             119.00,908.78 143.00,892.31 143.00,892.31
             153.42,886.59 161.77,883.08 173.00,879.33
             178.77,877.41 184.97,876.68 188.00,871.00
             201.55,873.43 197.72,869.25 208.00,863.99
             213.52,861.17 224.79,858.69 231.00,859.04
             233.05,859.16 234.93,859.38 236.58,860.74
             241.04,864.41 241.99,880.27 242.00,886.00
             242.01,893.22 241.51,903.17 242.94,909.99
             244.23,916.15 246.70,915.65 246.90,921.00
             246.90,921.00 244.32,939.00 244.32,939.00
             244.32,939.00 245.00,950.00 245.00,950.00
             245.00,950.00 245.00,975.00 245.00,975.00
             245.00,975.00 246.00,991.00 246.00,991.00
             246.00,991.00 246.00,1008.00 246.00,1008.00
             246.00,1008.00 246.96,1020.00 246.96,1020.00
             246.96,1020.00 246.96,1035.00 246.96,1035.00
             246.96,1035.00 248.00,1049.00 248.00,1049.00
             248.00,1049.00 249.32,1067.00 249.32,1067.00
             249.32,1067.00 251.72,1079.00 251.72,1079.00
             251.72,1079.00 254.29,1103.00 254.29,1103.00
             256.15,1113.79 258.92,1108.64 259.00,1124.00
             259.00,1124.00 259.91,1135.00 259.91,1135.00
             260.64,1145.61 260.21,1156.71 263.44,1167.00
             265.31,1172.94 267.53,1172.97 269.11,1177.04
             270.24,1179.93 269.72,1182.54 271.45,1186.00
             273.64,1190.37 277.47,1192.66 281.12,1199.00
             286.10,1207.65 286.93,1217.88 297.01,1222.00
             296.27,1224.56 295.31,1228.08 297.01,1230.49
             300.09,1234.84 314.00,1234.01 319.00,1234.00
             328.47,1233.99 329.21,1233.76 337.00,1228.45
             337.00,1228.45 342.81,1224.59 342.81,1224.59
             347.30,1220.61 350.55,1210.93 350.91,1205.00
             351.64,1192.94 342.91,1189.87 337.10,1181.00
             331.40,1172.30 326.87,1156.35 325.27,1146.00
             323.85,1136.75 322.01,1123.18 322.00,1114.00
             322.00,1114.00 320.99,1098.00 320.99,1098.00
             320.99,1098.00 320.99,1090.00 320.99,1090.00
             320.43,1085.69 319.04,1084.95 318.28,1082.42
             318.28,1082.42 317.75,1076.16 317.75,1076.16
             317.05,1072.63 315.31,1072.39 315.05,1067.00
             314.61,1058.04 319.26,1049.46 318.89,1043.00
             318.41,1034.47 312.88,1033.10 312.09,1021.00
             312.09,1021.00 315.00,988.00 315.00,988.00
             315.00,988.00 315.00,972.00 315.00,972.00
             315.00,972.00 314.05,959.00 314.05,959.00
             314.05,959.00 314.05,933.00 314.05,933.00
             314.44,929.33 315.94,926.77 315.79,923.00
             315.79,923.00 314.17,908.00 314.17,908.00
             314.17,908.00 311.92,873.00 311.92,873.00
             311.91,865.80 309.54,854.83 311.92,848.00
             313.13,844.22 315.40,841.98 317.83,839.00
             320.93,835.21 321.11,833.52 326.00,832.00
             326.97,830.19 327.19,829.30 329.14,828.17
             331.78,826.64 335.99,827.09 339.00,826.96
             342.01,826.83 351.32,825.66 354.00,824.75
             357.86,823.45 361.21,820.71 365.00,819.65
             368.63,819.08 371.11,820.40 373.63,819.65
             376.45,818.34 376.24,815.95 383.00,813.91
             383.00,813.91 435.00,803.58 435.00,803.58
             446.80,800.95 446.17,799.45 452.00,797.79
             459.40,795.67 466.85,797.87 469.00,788.00
             472.97,789.04 476.87,790.50 481.00,790.82
             494.07,791.81 517.26,782.11 529.00,776.25
             541.30,770.10 547.92,767.16 559.00,758.33
             564.79,753.73 573.75,742.87 573.68,735.00
             573.65,732.19 572.28,730.60 571.82,728.00
             571.26,724.84 572.83,721.44 567.89,717.99
             561.99,713.87 546.31,711.37 539.00,711.20
             527.99,710.36 523.45,709.65 512.00,711.20
             497.06,713.78 487.87,718.22 474.00,722.66
             458.00,727.77 437.71,732.16 421.00,733.83
             421.00,733.83 397.00,736.27 397.00,736.27
             388.03,737.68 387.06,740.31 383.28,740.90
             380.10,741.40 377.23,739.15 374.09,739.48
             371.35,739.77 370.13,741.73 366.96,742.57
             366.96,742.57 347.00,744.30 347.00,744.30
             340.12,745.39 338.72,747.80 331.00,747.99
             326.42,748.10 315.61,747.15 312.54,743.49
             309.93,740.41 313.37,737.76 312.54,733.00
             312.07,730.23 310.33,728.35 310.31,725.00
             310.30,721.57 312.42,718.83 311.91,712.00
             311.91,712.00 309.04,697.00 309.04,697.00
             309.04,697.00 311.97,674.00 311.97,674.00
             311.96,666.69 309.38,665.32 308.77,661.00
             308.77,661.00 308.77,647.00 308.77,647.00
             308.77,647.00 306.29,636.00 306.29,636.00
             306.29,636.00 308.39,625.00 308.39,625.00
             308.88,620.63 307.26,615.53 308.39,611.00
             309.17,607.27 311.57,605.74 311.67,602.00
             311.74,599.62 310.10,595.54 309.50,593.00
             309.50,593.00 306.29,576.00 306.29,576.00
             304.73,563.48 313.65,567.58 309.96,555.00
             309.96,555.00 299.72,529.00 299.72,529.00
             298.92,526.32 297.25,517.03 296.02,515.60
             293.46,512.62 288.43,515.55 284.65,511.57
             281.29,508.04 282.45,502.41 276.95,498.74
             267.77,492.61 251.62,505.34 247.41,513.00
             246.12,515.35 244.88,519.36 244.00,522.00
             237.47,541.59 241.83,538.57 238.55,555.00
             237.56,559.94 235.87,567.11 237.74,572.00
             239.32,576.15 243.39,578.29 243.65,582.00
             243.54,580.36 241.05,598.10 241.00,602.00
             241.00,602.00 241.00,693.00 241.00,693.00
             240.87,703.29 238.06,700.52 238.00,711.00
             237.93,722.51 239.22,725.74 244.00,736.00 Z
           M 1513.00,736.00
           C 1508.13,737.71 1509.01,740.36 1509.00,745.00
             1508.99,752.28 1509.03,757.78 1504.36,763.96
             1497.02,773.67 1491.08,765.59 1489.00,778.00
             1480.46,775.95 1474.87,779.10 1467.00,781.95
             1467.00,781.95 1447.00,788.00 1447.00,788.00
             1447.00,788.00 1427.00,793.34 1427.00,793.34
             1427.00,793.34 1415.10,795.72 1415.10,795.72
             1411.33,797.41 1411.00,800.61 1406.96,802.69
             1404.48,803.96 1400.85,804.02 1398.00,804.76
             1398.00,804.76 1384.00,810.01 1384.00,810.01
             1384.00,810.01 1338.00,832.25 1338.00,832.25
             1324.00,839.26 1297.44,848.58 1299.63,868.00
             1300.33,874.22 1302.58,882.73 1306.09,887.91
             1306.09,887.91 1310.15,893.17 1310.15,893.17
             1312.57,896.98 1311.59,899.07 1314.57,902.83
             1322.60,912.96 1344.68,925.68 1358.00,925.99
             1363.35,926.11 1368.52,925.98 1372.37,921.66
             1374.66,919.09 1375.14,916.10 1378.21,913.84
             1378.21,913.84 1388.00,908.78 1388.00,908.78
             1388.00,908.78 1412.00,892.31 1412.00,892.31
             1422.42,886.59 1430.77,883.08 1442.00,879.33
             1447.77,877.41 1453.97,876.68 1457.00,871.00
             1470.55,873.43 1466.72,869.25 1477.00,863.99
             1482.52,861.17 1493.79,858.69 1500.00,859.04
             1502.05,859.16 1503.93,859.38 1505.58,860.74
             1510.04,864.41 1510.99,880.27 1511.00,886.00
             1511.01,893.22 1510.51,903.17 1511.94,909.99
             1513.23,916.15 1515.70,915.65 1515.90,921.00
             1515.90,921.00 1513.32,939.00 1513.32,939.00
             1513.32,939.00 1514.00,950.00 1514.00,950.00
             1514.00,950.00 1514.00,975.00 1514.00,975.00
             1514.00,975.00 1515.00,991.00 1515.00,991.00
             1515.00,991.00 1515.00,1008.00 1515.00,1008.00
             1515.00,1008.00 1515.96,1020.00 1515.96,1020.00
             1515.96,1020.00 1515.96,1035.00 1515.96,1035.00
             1515.96,1035.00 1517.00,1049.00 1517.00,1049.00
             1517.00,1049.00 1518.32,1067.00 1518.32,1067.00
             1518.32,1067.00 1520.72,1079.00 1520.72,1079.00
             1520.72,1079.00 1523.29,1103.00 1523.29,1103.00
             1525.15,1113.79 1527.92,1108.64 1528.00,1124.00
             1528.00,1124.00 1528.91,1135.00 1528.91,1135.00
             1529.64,1145.61 1529.21,1156.71 1532.44,1167.00
             1534.31,1172.94 1536.53,1172.97 1538.11,1177.04
             1539.24,1179.93 1538.72,1182.54 1540.45,1186.00
             1542.64,1190.37 1546.47,1192.66 1550.12,1199.00
             1555.10,1207.65 1555.93,1217.88 1566.01,1222.00
             1565.27,1224.56 1564.31,1228.08 1566.01,1230.49
             1569.09,1234.84 1583.00,1234.01 1588.00,1234.00
             1597.47,1233.99 1598.21,1233.76 1606.00,1228.45
             1606.00,1228.45 1611.81,1224.59 1611.81,1224.59
             1616.30,1220.61 1619.55,1210.93 1619.91,1205.00
             1620.64,1192.94 1611.91,1189.87 1606.10,1181.00
             1600.40,1172.30 1595.87,1156.35 1594.27,1146.00
             1592.85,1136.75 1591.01,1123.18 1591.00,1114.00
             1591.00,1114.00 1589.99,1098.00 1589.99,1098.00
             1589.99,1098.00 1589.99,1090.00 1589.99,1090.00
             1589.43,1085.69 1588.04,1084.95 1587.28,1082.42
             1587.28,1082.42 1586.75,1076.16 1586.75,1076.16
             1586.05,1072.63 1584.31,1072.39 1584.05,1067.00
             1583.61,1058.04 1588.26,1049.46 1587.89,1043.00
             1587.41,1034.47 1581.88,1033.10 1581.09,1021.00
             1581.09,1021.00 1584.00,988.00 1584.00,988.00
             1584.00,988.00 1584.00,972.00 1584.00,972.00
             1584.00,972.00 1583.05,959.00 1583.05,959.00
             1583.05,959.00 1583.05,933.00 1583.05,933.00
             1583.44,929.33 1584.94,926.77 1584.79,923.00
             1584.79,923.00 1583.17,908.00 1583.17,908.00
             1583.17,908.00 1580.92,873.00 1580.92,873.00
             1580.91,865.80 1578.54,854.83 1580.92,848.00
             1582.13,844.22 1584.40,841.98 1586.83,839.00
             1589.93,835.21 1590.11,833.52 1595.00,832.00
             1595.97,830.19 1596.19,829.30 1598.14,828.17
             1600.78,826.64 1604.99,827.09 1608.00,826.96
             1611.01,826.83 1620.32,825.66 1623.00,824.75
             1626.86,823.45 1630.21,820.71 1634.00,819.65
             1637.63,819.08 1640.11,820.40 1642.63,819.65
             1645.45,818.34 1645.24,815.95 1652.00,813.91
             1652.00,813.91 1704.00,803.58 1704.00,803.58
             1715.80,800.95 1715.17,799.45 1721.00,797.79
             1728.40,795.67 1735.85,797.87 1738.00,788.00
             1741.97,789.04 1745.87,790.50 1750.00,790.82
             1763.07,791.81 1786.26,782.11 1798.00,776.25
             1810.30,770.10 1816.92,767.16 1828.00,758.33
             1833.79,753.73 1842.75,742.87 1842.68,735.00
             1842.65,732.19 1841.28,730.60 1840.82,728.00
             1840.26,724.84 1841.83,721.44 1836.89,717.99
             1830.99,713.87 1815.31,711.37 1808.00,711.20
             1796.99,710.36 1792.45,709.65 1781.00,711.20
             1766.06,713.78 1756.87,718.22 1743.00,722.66
             1727.00,727.77 1706.71,732.16 1690.00,733.83
             1690.00,733.83 1666.00,736.27 1666.00,736.27
             1657.03,737.68 1656.06,740.31 1652.28,740.90
             1649.10,741.40 1646.23,739.15 1643.09,739.48
             1640.35,739.77 1639.13,741.73 1635.96,742.57
             1635.96,742.57 1616.00,744.30 1616.00,744.30
             1609.12,745.39 1607.72,747.80 1600.00,747.99
             1595.42,748.10 1584.61,747.15 1581.54,743.49
             1578.93,740.41 1582.37,737.76 1581.54,733.00
             1581.07,730.23 1579.33,728.35 1579.31,725.00
             1579.30,721.57 1581.42,718.83 1580.91,712.00
             1580.91,712.00 1578.04,697.00 1578.04,697.00
             1578.04,697.00 1580.97,674.00 1580.97,674.00
             1580.96,666.69 1578.38,665.32 1577.77,661.00
             1577.77,661.00 1577.77,647.00 1577.77,647.00
             1577.77,647.00 1575.29,636.00 1575.29,636.00
             1575.29,636.00 1577.39,625.00 1577.39,625.00
             1577.88,620.63 1576.26,615.53 1577.39,611.00
             1578.17,607.27 1580.57,605.74 1580.67,602.00
             1580.74,599.62 1579.10,595.54 1578.50,593.00
             1578.50,593.00 1575.29,576.00 1575.29,576.00
             1573.73,563.48 1582.65,567.58 1578.96,555.00
             1578.96,555.00 1568.72,529.00 1568.72,529.00
             1567.92,526.32 1566.25,517.03 1565.02,515.60
             1562.46,512.62 1557.43,515.55 1553.65,511.57
             1550.29,508.04 1551.45,502.41 1545.95,498.74
             1536.77,492.61 1520.62,505.34 1516.41,513.00
             1515.11,515.38 1513.89,519.34 1513.00,522.00
             1506.47,541.59 1510.83,538.57 1507.55,555.00
             1506.56,559.94 1504.87,567.11 1506.74,572.00
             1508.32,576.15 1512.39,578.29 1512.65,582.00
             1512.54,580.36 1510.05,598.10 1510.00,602.00
             1510.00,602.00 1510.00,693.00 1510.00,693.00
             1509.87,703.29 1507.06,700.52 1507.00,711.00
             1506.93,722.51 1508.22,725.74 1513.00,736.00 Z
           M 700.00,1140.00
           C 700.00,1140.00 699.00,1145.00 699.00,1145.00
             705.76,1149.25 704.35,1154.67 706.43,1162.00
             707.62,1166.19 712.62,1176.24 714.92,1179.99
             718.48,1185.78 729.31,1191.51 735.00,1195.76
             740.87,1200.14 744.87,1205.95 750.17,1210.78
             753.53,1213.84 756.36,1213.91 760.00,1216.26
             764.40,1219.09 766.87,1222.40 772.00,1224.52
             772.00,1224.52 783.96,1227.69 783.96,1227.69
             783.96,1227.69 789.28,1230.52 789.28,1230.52
             789.28,1230.52 810.00,1234.13 810.00,1234.13
             834.37,1237.55 836.89,1237.04 861.00,1237.00
             861.00,1237.00 891.00,1234.53 891.00,1234.53
             897.29,1233.32 899.02,1230.99 904.00,1229.71
             904.00,1229.71 915.00,1228.56 915.00,1228.56
             920.58,1227.68 930.62,1224.61 936.00,1222.58
             942.25,1220.22 946.94,1218.95 949.00,1212.00
             949.00,1212.00 958.87,1213.64 958.87,1213.64
             958.87,1213.64 965.13,1208.93 965.13,1208.93
             965.13,1208.93 975.00,1205.44 975.00,1205.44
             975.00,1205.44 987.00,1197.44 987.00,1197.44
             987.00,1197.44 998.00,1195.21 998.00,1195.21
             998.00,1195.21 1015.00,1186.86 1015.00,1186.86
             1015.00,1186.86 1031.97,1176.74 1031.97,1176.74
             1031.97,1176.74 1031.97,1172.00 1031.97,1172.00
             1041.92,1171.78 1043.33,1169.53 1052.00,1166.44
             1058.10,1164.27 1058.89,1165.28 1066.00,1161.73
             1078.43,1155.52 1095.82,1140.98 1108.00,1132.74
             1111.36,1130.47 1116.23,1127.48 1120.00,1126.09
             1123.37,1124.86 1128.12,1124.25 1130.90,1122.28
             1135.50,1119.00 1135.00,1114.32 1144.00,1107.78
             1144.00,1107.78 1163.00,1095.04 1163.00,1095.04
             1170.64,1090.92 1178.81,1087.66 1183.97,1079.91
             1187.17,1075.10 1184.22,1065.99 1178.90,1063.74
             1176.60,1062.77 1171.62,1063.00 1169.00,1063.00
             1166.77,1056.39 1157.33,1053.50 1151.00,1055.72
             1148.08,1056.74 1146.28,1058.72 1143.00,1059.57
             1143.00,1059.57 1128.00,1060.81 1128.00,1060.81
             1120.70,1062.26 1112.08,1065.78 1105.00,1068.31
             1098.01,1070.80 1088.23,1073.88 1082.00,1077.43
             1082.00,1077.43 1060.00,1090.22 1060.00,1090.22
             1060.00,1090.22 1038.00,1098.05 1038.00,1098.05
             1038.00,1098.05 1025.00,1103.30 1025.00,1103.30
             1016.36,1106.34 1017.63,1103.12 1001.00,1110.01
             1001.00,1110.01 962.00,1127.80 962.00,1127.80
             962.00,1127.80 931.00,1138.07 931.00,1138.07
             931.00,1138.07 921.00,1143.42 921.00,1143.42
             915.24,1145.44 905.69,1144.30 901.00,1145.56
             901.00,1145.56 892.00,1149.44 892.00,1149.44
             892.00,1149.44 875.00,1151.46 875.00,1151.46
             875.00,1151.46 853.00,1156.56 853.00,1156.56
             842.55,1158.25 832.54,1158.12 822.00,1158.00
             814.90,1157.91 796.41,1155.73 790.00,1153.29
             784.79,1151.30 783.47,1149.07 780.00,1147.46
             776.00,1145.61 774.11,1147.11 771.00,1145.74
             765.92,1143.49 760.69,1134.32 759.53,1129.00
             757.77,1120.93 762.56,1114.11 764.78,1107.00
             766.65,1101.03 765.63,1097.83 769.80,1092.01
             773.00,1087.54 775.98,1086.51 777.91,1083.68
             779.88,1080.81 779.63,1077.47 783.45,1071.00
             783.45,1071.00 790.97,1060.00 790.97,1060.00
             801.24,1044.91 798.20,1047.80 812.00,1034.00
             812.00,1034.00 855.00,992.48 855.00,992.48
             860.06,988.48 862.44,988.55 864.59,986.92
             864.59,986.92 868.99,981.83 868.99,981.83
             871.92,979.67 872.58,982.85 881.00,976.84
             888.13,971.77 890.59,969.47 899.00,965.87
             899.00,965.87 914.95,959.59 914.95,959.59
             920.97,955.98 919.81,949.71 929.00,946.94
             937.80,944.29 961.10,943.98 971.00,944.00
             984.63,944.02 982.83,946.20 992.00,948.18
             992.00,948.18 1011.00,950.00 1011.00,950.00
             1005.61,961.88 1017.72,964.24 1025.00,970.33
             1029.91,974.43 1033.22,979.30 1036.00,985.00
             1036.00,985.00 1034.00,985.00 1034.00,985.00
             1034.00,985.00 1034.00,987.00 1034.00,987.00
             1043.09,991.95 1044.99,989.17 1054.00,990.11
             1054.00,990.11 1065.00,993.00 1065.00,993.00
             1066.76,984.24 1067.99,982.46 1068.00,973.00
             1068.00,970.43 1068.55,964.71 1066.40,963.01
             1064.25,961.33 1059.49,962.55 1057.00,963.01
             1060.33,949.26 1051.93,947.96 1047.97,937.00
             1046.74,933.60 1047.18,931.26 1045.55,928.00
             1043.72,924.35 1040.18,921.44 1037.80,918.00
             1037.80,918.00 1032.70,909.00 1032.70,909.00
             1029.48,904.93 1020.41,898.01 1016.00,894.58
             1008.83,888.99 995.03,878.29 987.00,874.88
             987.00,874.88 971.00,871.14 971.00,871.14
             961.47,868.44 955.28,866.12 945.00,866.00
             929.58,865.82 913.97,865.62 899.00,869.91
             899.00,869.91 880.00,877.91 880.00,877.91
             880.00,877.91 867.01,881.17 867.01,881.17
             863.09,883.20 861.16,887.38 856.00,891.48
             856.00,891.48 835.00,904.04 835.00,904.04
             828.35,908.76 827.69,911.97 822.99,915.32
             822.99,915.32 815.00,920.34 815.00,920.34
             815.00,920.34 804.00,930.06 804.00,930.06
             804.00,930.06 796.28,934.56 796.28,934.56
             796.28,934.56 788.00,942.67 788.00,942.67
             783.97,946.01 781.12,946.83 777.10,951.04
             772.95,955.39 772.63,958.30 769.61,963.00
             766.89,967.23 761.93,973.09 758.57,977.00
             758.57,977.00 726.90,1012.00 726.90,1012.00
             726.90,1012.00 722.11,1019.96 722.11,1019.96
             722.11,1019.96 715.67,1027.09 715.67,1027.09
             713.26,1029.94 706.76,1039.65 704.87,1043.00
             699.63,1052.32 702.75,1052.58 697.69,1062.00
             691.08,1074.31 688.85,1074.18 686.73,1089.00
             686.32,1091.84 685.88,1094.07 686.10,1097.00
             686.49,1102.23 688.40,1103.41 689.46,1107.00
             690.24,1109.67 689.97,1114.09 690.00,1117.00
             690.10,1124.83 692.52,1136.25 700.00,1140.00 Z" />
</svg>
